<?xml version="1.0" encoding="UTF-8"?>
<svg id="Layer_2" data-name="Layer 2" xmlns="http://www.w3.org/2000/svg" viewBox="0 0 75.55 23.91">
  <defs>
    <style>
      .cls-1 {
        fill: #fff;
      }
    </style>
  </defs>
  <g id="Layer_1-2" data-name="Layer 1">
    <path class="cls-1" d="m23.87,16.74c-.17-.33-.29-.58-.36-.75-.08-.18-.16-.35-.23-.51,0,.14-.01.28-.02.41l-.16,2.28c.15-.06.29-.14.42-.25.3-.24.45-.55.45-.93l-.1-.25Zm-.77,4.95h0c.08-.01.19-.06.27-.14.06-.04.08-.07.14-.12h0c-.06.04-.08.06-.14.11-.08.07-.19.12-.27.15Z"/>
    <path class="cls-1" d="m38.21,18.97c-.29-.32-.67-.46-1.13-.46-.17,0-.33.02-.52.05-4.22,1.21-7.69,1.79-10.45,1.77-.03-.61,0-1.31.08-2.11l.22-2.16c.27-4.39.43-9.24.43-14.6,0-.41-.16-.75-.46-1.04-.3-.27-.68-.42-1.14-.42-.43,0-.81.15-1.11.42-.32.29-.46.63-.46,1.04,0,5.13-.12,9.79-.39,14.02.07.16.15.33.23.51.07.17.19.42.36.75l.1.25c0,.38-.15.69-.45.93-.13.11-.27.19-.42.25l-.05.73h0s-.11,1.71-.11,1.71c0,.41.05.76.16,1.08.08-.03.19-.08.27-.15.06-.05.08-.07.14-.12h0c-.06.06-.08.09-.14.13-.08.08-.19.13-.27.15.14.48.41.84.79,1.08.46.31,1.24.46,2.3.46,1.49,0,3.41-.2,5.77-.56,2.57-.41,4.44-.85,5.63-1.36.68-.29,1.03-.72,1.03-1.33,0-.39-.14-.7-.41-1.02Zm-14.84.64h0s.03.01.03.01v.02l-.03-.03Z"/>
    <path class="cls-1" d="m23.37,21.54c.06-.05.08-.07.14-.12h0c-.06.06-.08.09-.14.13-.08.08-.19.13-.27.15h0c.08-.04.19-.09.27-.16Z"/>
    <path class="cls-1" d="m55.63,19.13c-.22-1.36-.32-2.46-.32-3.29v-2.98c-.03-1.88-.3-3.29-.73-4.26-.68-1.44-1.87-2.14-3.55-2.14-1.87,0-3.71,1.15-5.47,3.42l-.05-1.78c-.08-1.33-.62-2.01-1.6-2.01-.46,0-.81.16-1.11.44-.32.26-.46.63-.46,1.07,0,.31.03.81.05,1.44.03.65.05,1.15.05,1.46,0,.55-.03,1.23-.05,2.04.24-.26.49-.37.76-.37.38,0,.7.13,1,.39.3.29.43.6.43.94,0,1.07-.83,2.25-2.48,3.01-.08,1.23-.12,1.96-.12,2.74,0,.29.03.76.11,1.36.05.63.11,1.07.11,1.39,0,.47.14.84.41,1.12.3.29.68.42,1.14.42s.84-.13,1.11-.42c.3-.29.43-.65.43-1.12,0-.31-.03-.76-.08-1.39-.05-.6-.11-1.07-.11-1.36,0-.5.05-.99.11-1.49.08-.6.11-1.1.14-1.52.57-1.88,1.33-3.45,2.3-4.68,1.06-1.36,2.19-2.04,3.39-2.04.84,0,1.27,1.1,1.27,3.32,0,.29-.03.76-.05,1.44-.05.71-.05,1.18-.05,1.46,0,1.05.05,2.17.22,3.35l.43,3.37c.14.94.65,1.44,1.54,1.44.46,0,.84-.16,1.14-.42.3-.29.46-.65.46-1.1,0-.84-.11-1.93-.35-3.27Z"/>
    <path class="cls-1" d="m42.91,13.13c-.3-.28-.62-.42-1-.42-.27,0-.51.11-.76.39-.14.11-.27.28-.41.48-.35.59-1.16,1.06-2.41,1.43-.97.28-1.84.42-2.57.42-1.16,0-2.19-.22-3.06-.7-.89-.45-1.62-1.12-2.22-2.04l6.07-2.96c1.71-.84,2.82-1.45,3.36-1.85,1.19-.9,1.79-1.87,1.79-2.96,0-1.57-.68-2.71-2.06-3.47-1.11-.62-2.55-.92-4.28-.92-2.44,0-4.36,1.03-5.82,3.13-1.33,1.93-2,4.31-2,7.16,0,2.46.81,4.36,2.44,5.73,1.49,1.23,3.41,1.85,5.8,1.85,1.54,0,3.11-.36,4.74-1.12.14-.06.27-.11.38-.2,1.65-.81,2.46-1.79,2.46-2.94,0-.36-.14-.7-.43-1.01Zm-9.68-8.59c.84-1.03,1.92-1.57,3.22-1.57,1.62,0,2.9.45,3.82,1.31-.81.7-2.19,1.54-4.09,2.52l-4.87,2.38c.41-2.07,1.06-3.64,1.92-4.64Z"/>
    <path class="cls-1" d="m67,8.38c0,.41-.16.75-.43,1.02-.3.27-.68.41-1.14.41-.22,0-.49,0-.79-.02s-.57-.02-.79-.02c-.16,0-.6.05-1.25.12-.27,0-.57.05-.89.07l.3,8.42v.02c-.22.07-.41.19-.6.36-.35.27-.51.61-.51.99,0,.61.32,1.12,1,1.55-.22,1.02-.73,1.53-1.54,1.53-.41,0-.79-.12-1.08-.39-.32-.24-.49-.53-.49-.92,0-.34.03-.9.05-1.6.03-.73.05-1.26.05-1.63l-.32-8.3c-.76-.05-1.95-.12-3.52-.24-.95-.12-1.41-.58-1.41-1.41,0-.44.14-.78.43-1.04.27-.29.65-.41,1.08-.41l3.33.24c0-.49-.03-1.14-.05-1.94-.05-.83-.08-1.41-.08-1.77,0-.39.16-.73.46-.97.3-.27.68-.39,1.11-.39.97,0,1.52.68,1.68,2.09.03.34.05.78.05,1.26l-.03.83-.03.87c1.3-.15,2.06-.22,2.25-.22,1.11,0,1.81.05,2.17.15.14.05.27.1.38.17.41.22.6.61.6,1.16Z"/>
    <path class="cls-1" d="m66.13,12.26c.3.1.62.19.92.24,2.44.39,4.25.92,5.44,1.6,1.71.99,2.57,2.43,2.57,4.32,0,1.55-.76,2.72-2.25,3.49-1.22.66-2.79.97-4.69.97-1.38,0-2.71-.22-3.98-.63-.6-.19-1.06-.41-1.44-.66-.68-.44-1-.95-1-1.55,0-.39.16-.73.51-.99.19-.17.38-.29.6-.36.19-.05.35-.07.54-.07.32,0,.73.22,1.25.68.27.22.84.41,1.73.53.7.12,1.3.19,1.79.19.89,0,1.68-.1,2.36-.29.97-.29,1.46-.73,1.46-1.31,0-1.29-1-2.16-3.01-2.62l-1.65-.32c-1.41-.29-2.41-.61-3.01-.97-.84-.53-1.27-1.33-1.27-2.4,0-.73.14-1.38.41-1.94.65-.07,1.08-.12,1.25-.12.22,0,.49,0,.79.02s.57.02.79.02c.46,0,.84-.15,1.14-.41.27-.27.43-.61.43-1.02,0-.56-.19-.95-.6-1.16.54-.17,1.19-.36,1.98-.56,1.38-.34,2.38-.66,2.98-.9.43-.17.92-.24,1.44-.24.43,0,.81.12,1.11.39s.43.61.43,1.04c0,.27.05.68.19,1.21.14.51.22.92.22,1.19,0,.44-.16.78-.46,1.04-.27.27-.65.41-1.11.41-.57,0-.97-.19-1.22-.53-.16-.24-.3-.75-.41-1.53-.79.17-2.03.51-3.68,1-1.68.61-2.55,1.33-2.55,2.23Z"/>
    <path class="cls-1" d="m0,9.27v-.42l.11-.16c.99-.38,1.8-.73,2.41-1.05,0-2.82-.03-4.46-.1-4.92,1.09-.39,1.98-.8,2.68-1.25l.38.32c-.11.68-.23,2.66-.38,5.93.53.01,1.1.02,1.71.02,1.25,0,2.14-.03,2.68-.1l.11.11-.3,1.36-.13.15c-.54-.01-1.14-.02-1.79-.02-.59,0-1.35,0-2.29.02l-.1,6.59c0,1.52.03,2.52.1,2.99s.26.84.57,1.1.77.4,1.39.4c.71,0,1.36-.19,1.97-.57l.38.58c-.25.18-.86.72-1.82,1.62-.55.26-1.11.39-1.68.39-2.38,0-3.57-1.18-3.57-3.53,0-.86.02-1.6.06-2.2.01-.18.02-.37.02-.57v-6.72h-.65c-.48,0-1.02.02-1.63.06l-.14-.13Z"/>
    <path class="cls-1" d="m23.87,16.74c-.17-.33-.29-.58-.36-.75-.08-.18-.16-.35-.23-.51-.42-.97-.68-1.63-.77-1.99-.19-.68-.28-1.61-.27-2.79.01-1.29.04-2.34.1-3.17.06-.82.14-1.42.25-1.78.21-.2.32-.42.32-.68,0-.75-.72-1.39-2.16-1.92-1.15-.43-2.18-.64-3.1-.64-2.44,0-4.54.82-6.3,2.45-.88.81-1.55,1.7-1.99,2.68-.23.52-.4,1.05-.5,1.61-.11.51-.16,1.04-.16,1.59,0,2.43.54,4.23,1.61,5.41,1.13,1.25,2.93,1.87,5.41,1.87.52,0,1.16-.12,1.93-.37.78-.25,1.67-.63,2.68-1.12.24.3.59.65,1.07,1.04.53.42.89.62,1.09.62.22,0,.42-.04.61-.12.15-.06.29-.14.42-.25.3-.24.45-.55.45-.93l-.1-.25Zm-5.77-1.6c-.71.33-1.57.5-2.59.5-1.23,0-2.15-.39-2.76-1.17-.61-.78-.92-1.94-.92-3.5s.59-2.94,1.78-4.14c1.19-1.2,2.61-1.8,4.25-1.8.17,0,.39.04.67.13.28.08.62.21,1.01.39-.11.54-.2,1.05-.26,1.53-.06.48-.09.92-.09,1.33,0,1.25.17,3.14.51,5.65-.69.54-1.22.9-1.6,1.08Z"/>
  </g>
</svg>